<?xml version="1.0" encoding="utf-8"?>
<!-- Svg Vector Icons : http://www.sfont.cn -->
<!DOCTYPE svg PUBLIC "-//W3C//DTD SVG 1.1//EN" "http://www.w3.org/Graphics/SVG/1.1/DTD/svg11.dtd">
<svg version="1.1" xmlns="http://www.w3.org/2000/svg" xmlns:xlink="http://www.w3.org/1999/xlink" x="0px" y="0px" viewBox="0 0 1000 1000" enable-background="new 0 0 1000 1000" xml:space="preserve">
<metadata> 矢量图标下载 : http://www.sfont.cn/ </metadata><g><path d="M809.8,634c-57.2,0-107.7,27.2-140.7,69L363.3,546.6c4-14.9,6.9-30.4,6.9-46.6c0-17.7-3.4-34.3-8.2-50.5l304.5-155.7c32.8,43.7,84.6,72.2,143.4,72.2c99.6,0,180.2-80.6,180.2-180.1c0-99.4-80.6-180-180.2-180c-99.4,0-180,80.6-180,180c0,16.3,2.9,31.8,6.9,46.7L330.9,389c-33-41.8-83.6-69.2-140.9-69.2c-99.5,0-180,80.7-180,180.1C10,599.4,90.5,680,190,680c58.9,0,110.6-28.6,143.5-72.3L638,763.5c-4.8,16.2-8.2,32.9-8.2,50.6c0,99.5,80.7,180.1,180,180.1c99.6,0,180.2-80.6,180.2-180.1C990,714.6,909.4,634,809.8,634z" style="fill:#56abe4"></path></g></svg>